<svg xmlns="http://www.w3.org/2000/svg" viewBox="0 0 64 64" width="64" height="64">
    <g>
        <path d="M32,2C23.163,2,16,9.163,16,18c0,5.263,2.996,9.896,7.438,12.379c-1.309,1.108-2.583,2.293-3.686,3.579
            C16.055,39.544,14,46.33,14,50v4c0,5.523,4.477,10,10,10h16c5.523,0,10-4.477,10-10v-4c0-3.67-2.064-10.456-5.752-15.042
            c-1.104-1.286-2.377-2.471-3.687-3.579C45.004,27.896,48,23.263,48,18C48,9.163,40.837,2,32,2z M30.936,52.523
            c-1.94,0-3.442-1.389-3.442-3.392c0-0.392,0.058-0.729,0.171-1.015c0.115-0.286,0.291-0.541,0.523-0.764
            c0.231-0.222,0.539-0.436,0.921-0.638c0.381-0.202,0.875-0.416,1.48-0.643c0.69-0.256,1.25-0.498,1.68-0.727
            c0.431-0.229,0.756-0.48,0.971-0.756c0.215-0.276,0.323-0.615,0.323-1.016c0-0.544-0.177-0.982-0.532-1.31
            c-0.354-0.329-0.836-0.492-1.445-0.492c-0.574,0-1.057,0.123-1.449,0.369c-0.391,0.246-0.68,0.567-0.865,0.965
            c-0.124,0.277-0.265,0.533-0.419,0.77c-0.153,0.237-0.373,0.355-0.661,0.355c-0.269,0-0.496-0.084-0.68-0.253
            c-0.183-0.169-0.275-0.375-0.275-0.618c0-0.153,0.041-0.318,0.124-0.495c0.246-0.539,0.642-1.017,1.185-1.436
            c0.543-0.418,1.148-0.736,1.817-0.943c0.669-0.207,1.354-0.311,2.055-0.311c1.256,0,2.305,0.351,3.148,1.055
            c0.842,0.703,1.264,1.633,1.264,2.787c0,0.623-0.1,1.158-0.298,1.606c-0.199,0.449-0.482,0.834-0.849,1.156
            c-0.366,0.322-0.812,0.595-1.336,0.819c-0.37,0.158-0.892,0.364-1.567,0.618c-0.501,0.185-0.863,0.352-1.084,0.5
            c-0.221,0.148-0.396,0.313-0.523,0.494c-0.127,0.181-0.19,0.416-0.19,0.707c0,0.333,0.122,0.611,0.366,0.835
            c0.244,0.224,0.568,0.336,0.971,0.336c0.66,0,1.192-0.195,1.593-0.586c0.401-0.391,0.659-0.859,0.775-1.406
            c0.058-0.245,0.18-0.455,0.364-0.63c0.184-0.176,0.414-0.263,0.692-0.263c0.256,0,0.477,0.086,0.661,0.256
            c0.184,0.171,0.276,0.385,0.276,0.644c0,0.098-0.01,0.191-0.03,0.278c-0.198,0.932-0.653,1.731-1.366,2.397
            c-0.713,0.667-1.65,1.001-2.81,1.001C31.822,52.53,31.361,52.523,30.936,52.523z M35,25h-2v2c0,0.553-0.447,1-1,1
            s-1-0.447-1-1v-2h-2c-0.553,0-1-0.447-1-1s0.447-1,1-1h2v-2c0-0.553,0.447-1,1-1s1,0.447,1,1v2h2c0.553,0,1,0.447,1,1
            S35.553,25,35,25z"/>
    </g>
</svg>
